<svg width="20" height="14" viewBox="0 0 20 14" fill="none" xmlns="http://www.w3.org/2000/svg">
<path d="M0.821707 13.9592C0.571972 13.9093 0.319248 13.7827 0.16641 13.5533C-0.139266 13.0965 -0.011404 12.4562 0.44811 12.151L9.4386 6.16681C9.77324 5.9444 10.2268 5.9444 10.5614 6.16681L19.5519 12.151C20.0114 12.4562 20.1393 13.0965 19.8336 13.5533C19.5279 14.0111 18.8876 14.1387 18.4291 13.8345L10 8.22436L1.57091 13.8345C1.34216 13.9861 1.07244 14.0091 0.821707 13.9592Z" fill="white"/>
<path d="M0.821707 7.95921C0.571972 7.90935 0.319248 7.7827 0.16641 7.5533C-0.139266 7.09651 -0.011404 6.4562 0.44811 6.151L9.4386 0.16681C9.77324 -0.0556032 10.2268 -0.0556032 10.5614 0.16681L19.5519 6.151C20.0114 6.4562 20.1393 7.09651 19.8336 7.5533C19.5279 8.0111 18.8876 8.13874 18.4291 7.83454L10 2.22436L1.57091 7.83454C1.34216 7.98614 1.07244 8.00908 0.821707 7.95921Z" fill="white"/>
</svg>
