<svg width="20" height="14" viewBox="0 0 20 14" fill="none" xmlns="http://www.w3.org/2000/svg">
<path d="M0.821707 0.0407852C0.571972 0.0906535 0.319248 0.217301 0.16641 0.446695C-0.139266 0.903489 -0.011404 1.5438 0.44811 1.849L9.4386 7.83319C9.77324 8.0556 10.2268 8.0556 10.5614 7.83319L19.5519 1.849C20.0114 1.5438 20.1393 0.903489 19.8336 0.446695C19.5279 -0.0110953 18.8876 -0.138741 18.4291 0.165456L10 5.77564L1.57091 0.165456C1.34216 0.0138563 1.07244 -0.0090831 0.821707 0.0407852Z" fill="white"/>
<path d="M0.821707 6.04079C0.571972 6.09065 0.319248 6.2173 0.16641 6.4467C-0.139266 6.90349 -0.011404 7.5438 0.44811 7.849L9.4386 13.8332C9.77324 14.0556 10.2268 14.0556 10.5614 13.8332L19.5519 7.849C20.0114 7.5438 20.1393 6.90349 19.8336 6.4467C19.5279 5.9889 18.8876 5.86126 18.4291 6.16546L10 11.7756L1.57091 6.16546C1.34216 6.01386 1.07244 5.99092 0.821707 6.04079Z" fill="white"/>
</svg>
