<svg xmlns="http://www.w3.org/2000/svg" width="23.143" height="14.171" viewBox="0 0 23.143 14.171">
  <g id="previous" opacity="0.7">
    <path id="combo_shape" data-name="combo shape" d="M1.848.924A.924.924,0,1,0,0,.924V13.247a.924.924,0,1,0,1.848,0V9.011a2.549,2.549,0,0,0,.3.2l7.431,4.335a2.465,2.465,0,0,0,3.706-2.129V9.961l6.152,3.588a2.465,2.465,0,0,0,3.706-2.129V2.75A2.465,2.465,0,0,0,19.436.622L13.285,4.21V2.75A2.465,2.465,0,0,0,9.578.622L2.147,4.957a2.549,2.549,0,0,0-.3.2Z" fill="#fcfcfc"/>
  </g>
</svg>
