<svg id="Component_12_1" data-name="Component 12 – 1" xmlns="http://www.w3.org/2000/svg" width="34" height="34" viewBox="0 0 34 34">
  <path id="Path_10" data-name="Path 10" d="M17,0A17.108,17.108,0,0,1,32.486,9.977,16.606,16.606,0,0,1,34,17,17,17,0,1,1,17,0Z" fill="#ff3c00" opacity="0.1"/>
  <path id="Vector" d="M7.439.385a.385.385,0,0,0-.77,0Zm-.77,1.539a.385.385,0,1,0,.77,0ZM3.335.385a.385.385,0,0,0-.77,0Zm-.77,1.539a.385.385,0,1,0,.77,0Zm-.128-.385h5.13V.77H2.437Zm5.13,8.721H2.437v.77h5.13ZM.77,8.593V3.976H0V8.593Zm0-4.617v-.77H0v.77Zm8.465-.77v.77H10v-.77Zm0,.77V8.593H10V3.976Zm-6.8,6.285A1.667,1.667,0,0,1,.77,8.593H0A2.437,2.437,0,0,0,2.437,11.03Zm5.13.77A2.437,2.437,0,0,0,10,8.593h-.77A1.667,1.667,0,0,1,7.567,10.26Zm0-9.491A1.667,1.667,0,0,1,9.234,3.206H10A2.437,2.437,0,0,0,7.567.77ZM2.437.77A2.437,2.437,0,0,0,0,3.206H.77A1.667,1.667,0,0,1,2.437,1.539ZM.385,4.361H9.619v-.77H.385ZM6.669.385V1.924h.77V.385Zm-4.1,0V1.924h.77V.385Z" transform="translate(11.998 11.485)" fill="#ff3c00"/>
</svg>
