<svg xmlns="http://www.w3.org/2000/svg" width="21" height="21" viewBox="0 0 21 21">
  <g id="Huge-icon_arrows_outline_download" data-name="Huge-icon/arrows/outline/download" transform="translate(0 21) rotate(-90)">
    <path id="Vector_347" data-name="Vector 347" d="M3.467.237A.808.808,0,1,1,4.61,1.379Zm-2.66,3.8L.237,4.61a.808.808,0,0,1,0-1.142ZM4.61,6.7A.808.808,0,0,1,3.467,7.84Zm9.121-3.467a.808.808,0,0,1,0,1.615ZM4.61,1.379,1.379,4.61.237,3.467,3.467.237ZM1.379,3.467,4.61,6.7,3.467,7.84.237,4.61ZM.808,3.231H13.731V4.846H.808Z" transform="translate(6.462 6.462)" fill="#fcfcfc"/>
    <path id="Vector_354" data-name="Vector 354" d="M12.923,5.654a.808.808,0,1,0,1.615,0Zm1.615,9.692a.808.808,0,0,0-1.615,0Zm0-9.692V5.115H12.923v.538ZM9.423,0H5.115V1.615H9.423ZM0,5.115V15.885H1.615V5.115ZM5.115,21H9.423V19.385H5.115Zm9.423-5.115v-.538H12.923v.538ZM9.423,21a5.115,5.115,0,0,0,5.115-5.115H12.923a3.5,3.5,0,0,1-3.5,3.5ZM0,15.885A5.115,5.115,0,0,0,5.115,21V19.385a3.5,3.5,0,0,1-3.5-3.5ZM5.115,0A5.115,5.115,0,0,0,0,5.115H1.615a3.5,3.5,0,0,1,3.5-3.5Zm9.423,5.115A5.115,5.115,0,0,0,9.423,0V1.615a3.5,3.5,0,0,1,3.5,3.5Z" fill="#fcfcfc"/>
  </g>
</svg>
