<svg xmlns="http://www.w3.org/2000/svg" width="27" height="27" viewBox="0 0 27 27">
  <g id="Huge-icon_arrows_outline_download" data-name="Huge-icon/arrows/outline/download" transform="translate(0 27) rotate(-90)" opacity="0.3">
    <path id="Vector_347" data-name="Vector 347" d="M4.458.3A1.038,1.038,0,0,1,5.927,1.773ZM1.038,5.192.3,5.927a1.038,1.038,0,0,1,0-1.469Zm4.888,3.42A1.038,1.038,0,0,1,4.458,10.08ZM17.654,4.154a1.038,1.038,0,0,1,0,2.077ZM5.927,1.773,1.773,5.927.3,4.458,4.458.3ZM1.773,4.458,5.927,8.612,4.458,10.08.3,5.927Zm-.734-.3H17.654V6.231H1.038Z" transform="translate(8.308 8.308)" fill="#fcfcfc"/>
    <path id="Vector_354" data-name="Vector 354" d="M16.615,7.269a1.038,1.038,0,1,0,2.077,0Zm2.077,12.462a1.038,1.038,0,0,0-2.077,0Zm0-12.462V6.577H16.615v.692ZM12.115,0H6.577V2.077h5.538ZM0,6.577V20.423H2.077V6.577ZM6.577,27h5.538V24.923H6.577Zm12.115-6.577v-.692H16.615v.692ZM12.115,27a6.577,6.577,0,0,0,6.577-6.577H16.615a4.5,4.5,0,0,1-4.5,4.5ZM0,20.423A6.577,6.577,0,0,0,6.577,27V24.923a4.5,4.5,0,0,1-4.5-4.5ZM6.577,0A6.577,6.577,0,0,0,0,6.577H2.077a4.5,4.5,0,0,1,4.5-4.5ZM18.692,6.577A6.577,6.577,0,0,0,12.115,0V2.077a4.5,4.5,0,0,1,4.5,4.5Z" fill="#fcfcfc"/>
  </g>
</svg>
