<svg id="Huge-icon_arrows_outline_exchange" data-name="Huge-icon/arrows/outline/exchange" xmlns="http://www.w3.org/2000/svg" width="21" height="21" viewBox="0 0 21 21">
  <path id="Vector_357" data-name="Vector 357" d="M0,11.7a.9.9,0,0,0,1.8,0ZM20.1,4.5v.9a.9.9,0,0,0,.636-1.536ZM17.136.264a.9.9,0,0,0-1.273,1.273ZM1.8,11.7V10.5H0v1.2ZM6.9,5.4H20.1V3.6H6.9ZM20.736,3.864l-3.6-3.6L15.864,1.536l3.6,3.6ZM1.8,10.5A5.1,5.1,0,0,1,6.9,5.4V3.6A6.9,6.9,0,0,0,0,10.5Z" transform="translate(0 0)" fill="#fcfcfc"/>
  <path id="Vector_359" data-name="Vector 359" d="M21,.9a.9.9,0,0,0-1.8,0ZM.9,8.1V7.2A.9.9,0,0,0,.264,8.736Zm2.964,4.236a.9.9,0,0,0,1.273-1.273ZM19.2.9V2.1H21V.9ZM14.1,7.2H.9V9H14.1ZM.264,8.736l3.6,3.6,1.273-1.273-3.6-3.6ZM19.2,2.1a5.1,5.1,0,0,1-5.1,5.1V9A6.9,6.9,0,0,0,21,2.1Z" transform="translate(0 8.4)" fill="#fcfcfc"/>
</svg>
