<svg xmlns="http://www.w3.org/2000/svg" width="27" height="27" viewBox="0 0 27 27">
  <g id="Huge-icon_arrows_outline_exchange" data-name="Huge-icon/arrows/outline/exchange" opacity="0.3">
    <path id="Vector_357" data-name="Vector 357" d="M0,15.043a1.157,1.157,0,0,0,2.314,0ZM25.843,5.786V6.943a1.157,1.157,0,0,0,.818-1.975ZM22.032.339A1.157,1.157,0,0,0,20.4,1.975ZM2.314,15.043V13.5H0v1.543Zm6.557-8.1H25.843V4.629H8.871Zm17.79-1.975L22.032.339,20.4,1.975,25.025,6.6ZM2.314,13.5A6.557,6.557,0,0,1,8.871,6.943V4.629A8.871,8.871,0,0,0,0,13.5Z" transform="translate(0 0)" fill="#fcfcfc"/>
    <path id="Vector_359" data-name="Vector 359" d="M27,1.157a1.157,1.157,0,1,0-2.314,0ZM1.157,10.414V9.257a1.157,1.157,0,0,0-.818,1.975Zm3.81,5.447A1.157,1.157,0,1,0,6.6,14.225Zm19.718-14.7V2.7H27V1.157Zm-6.557,8.1H1.157v2.314H18.129ZM.339,11.232l4.629,4.629L6.6,14.225,1.975,9.6ZM24.686,2.7a6.557,6.557,0,0,1-6.557,6.557v2.314A8.871,8.871,0,0,0,27,2.7Z" transform="translate(0 10.8)" fill="#fcfcfc"/>
  </g>
</svg>
