<svg xmlns="http://www.w3.org/2000/svg" width="23.105" height="13.606" viewBox="0 0 23.105 13.606">
  <path id="combo_shape" data-name="combo shape" d="M13.564,13.267,21,8.932a2.567,2.567,0,0,0,.261-.174v3.591a.924.924,0,1,0,1.848,0V1.258a.924.924,0,1,0-1.848,0v3.59A2.563,2.563,0,0,0,21,4.674L13.564.339A2.464,2.464,0,0,0,9.858,2.468v1.46L3.706.339A2.465,2.465,0,0,0,0,2.468v8.67a2.465,2.465,0,0,0,3.706,2.129L9.858,9.678v1.46A2.464,2.464,0,0,0,13.564,13.267Z" transform="translate(0 0)" fill="#fcfcfc"/>
</svg>
