<svg width="20" height="19" viewBox="0 0 20 19" fill="none" xmlns="http://www.w3.org/2000/svg">
<path fill-rule="evenodd" clip-rule="evenodd" d="M2 7C2.55228 7 3 7.44772 3 8V15.0005C3 16.1049 3.8952 17 5 17H7V13C7 11.3431 8.34315 10 10 10C11.6569 10 13 11.3431 13 13V17H15C16.1048 17 17 16.1049 17 15.0005V8C17 7.44772 17.4477 7 18 7C18.5523 7 19 7.44772 19 8V15.0005C19 17.2099 17.2089 19 15 19H12C11.4477 19 11 18.5523 11 18V13C11 12.4477 10.5523 12 10 12C9.44772 12 9 12.4477 9 13V18C9 18.5523 8.55228 19 8 19H5C2.79109 19 1 17.2099 1 15.0005V8C1 7.44772 1.44772 7 2 7Z" fill="#C3C7CD"/>
<path fill-rule="evenodd" clip-rule="evenodd" d="M11.0591 2.44103C10.4737 1.85299 9.52634 1.85299 8.94091 2.44103L1.70868 9.70553C1.31902 10.0969 0.685861 10.0983 0.294469 9.70868C-0.0969237 9.31902 -0.098333 8.68586 0.291321 8.29447L7.52356 1.02997C8.89075 -0.343325 11.1093 -0.343321 12.4764 1.02997L19.7087 8.29447C20.0983 8.68586 20.0969 9.31902 19.7055 9.70868C19.3141 10.0983 18.681 10.0969 18.2913 9.70553L11.0591 2.44103Z" fill="#C3C7CD"/>
</svg>
