<svg id="Huge-icon_multimedia_and_audio_outline_speaker-disable" data-name="Huge-icon/multimedia and audio/outline/speaker-disable" xmlns="http://www.w3.org/2000/svg" width="21" height="21.004" viewBox="0 0 21 21.004">
  <path id="Vector" d="M12.66,19.618l.54-.72h0ZM7.54,15.78l.54-.72h0Zm11.924,4.959a.9.9,0,1,0,1.273-1.273ZM1.536.265A.9.9,0,0,0,.264,1.538ZM12.66,1.386l-.54-.72h0ZM8.419,3.44A.9.9,0,0,0,9.5,4.881ZM15.6,11.7a.9.9,0,1,0,1.8,0Zm-2.4,7.2L8.08,15.06,7,16.5l5.12,3.838Zm2.4-1.2a1.5,1.5,0,0,1-2.4,1.2l-1.08,1.44A3.3,3.3,0,0,0,17.4,17.7ZM0,8.1v4.8H1.8V8.1Zm3.3,8.1H6.1V14.4H3.3ZM0,12.9a3.3,3.3,0,0,0,3.3,3.3V14.4a1.5,1.5,0,0,1-1.5-1.5ZM3.3,4.8A3.3,3.3,0,0,0,0,8.1H1.8A1.5,1.5,0,0,1,3.3,6.6ZM8.08,15.06A3.3,3.3,0,0,0,6.1,14.4v1.8a1.5,1.5,0,0,1,.9.3ZM15.6,16.5v1.2h1.8V16.5Zm.264.636,3.6,3.6,1.273-1.273-3.6-3.6ZM.264,1.538l4.8,4.8L6.339,5.068l-4.8-4.8Zm4.8,4.8,10.8,10.8,1.273-1.273-10.8-10.8ZM5.7,4.8H3.3V6.6H5.7Zm7.5-2.7a1.5,1.5,0,0,1,2.4,1.2h1.8A3.3,3.3,0,0,0,12.12.666ZM9.5,4.881l3.7-2.775L12.12.666,8.419,3.44ZM15.6,3.3v8.4h1.8V3.3Z" transform="translate(0 0)" fill="#fcfcfc"/>
</svg>
