<svg xmlns="http://www.w3.org/2000/svg" width="17.777" height="17.777" viewBox="0 0 17.777 17.777">
  <g id="Group_3" data-name="Group 3" transform="translate(0 0)" opacity="0.4">
    <path id="Path_3" data-name="Path 3" d="M58.943,2.934c2.374,0,2.655.009,3.592.052a4.908,4.908,0,0,1,1.65.306,2.946,2.946,0,0,1,1.687,1.687,4.917,4.917,0,0,1,.306,1.65c.042.937.052,1.218.052,3.592s-.01,2.655-.052,3.592a4.917,4.917,0,0,1-.306,1.65,2.941,2.941,0,0,1-1.687,1.687,4.921,4.921,0,0,1-1.65.306c-.937.042-1.218.051-3.592.051s-2.655-.009-3.592-.051a4.917,4.917,0,0,1-1.65-.306,2.941,2.941,0,0,1-1.687-1.687,4.917,4.917,0,0,1-.306-1.65c-.042-.937-.051-1.218-.051-3.592s.009-2.655.051-3.592a4.917,4.917,0,0,1,.306-1.65A2.946,2.946,0,0,1,53.7,3.291a4.9,4.9,0,0,1,1.65-.306c.937-.043,1.218-.052,3.592-.052m0-1.6c-2.414,0-2.717.01-3.665.053A6.509,6.509,0,0,0,53.12,1.8a4.353,4.353,0,0,0-1.574,1.025A4.358,4.358,0,0,0,50.521,4.4a6.513,6.513,0,0,0-.414,2.158c-.043.948-.053,1.251-.053,3.665s.01,2.717.053,3.665a6.509,6.509,0,0,0,.414,2.158,4.544,4.544,0,0,0,2.6,2.6,6.529,6.529,0,0,0,2.158.413c.948.043,1.251.053,3.665.053s2.717-.01,3.665-.053a6.528,6.528,0,0,0,2.158-.413,4.547,4.547,0,0,0,2.6-2.6,6.529,6.529,0,0,0,.413-2.158c.043-.948.053-1.25.053-3.665s-.01-2.717-.053-3.665A6.532,6.532,0,0,0,67.365,4.4a4.37,4.37,0,0,0-1.025-1.574A4.353,4.353,0,0,0,64.765,1.8a6.509,6.509,0,0,0-2.158-.414c-.948-.043-1.251-.053-3.665-.053" transform="translate(-50.054 -1.332)" fill="#37475b"/>
    <path id="Path_4" data-name="Path 4" d="M60.539,7.657a4.16,4.16,0,1,0,4.16,4.16,4.16,4.16,0,0,0-4.16-4.16m0,6.861a2.7,2.7,0,1,1,2.7-2.7,2.7,2.7,0,0,1-2.7,2.7" transform="translate(-51.651 -2.929)" fill="#37475b"/>
    <path id="Path_5" data-name="Path 5" d="M70.769,7A1.167,1.167,0,1,1,69.6,5.833,1.166,1.166,0,0,1,70.769,7" transform="translate(-56.03 -2.795)" fill="#37475b"/>
  </g>
</svg>
