<svg xmlns="http://www.w3.org/2000/svg" width="17.771" height="17.779" viewBox="0 0 17.771 17.779">
  <g id="Group_4" data-name="Group 4" transform="translate(0 0)" opacity="0.4">
    <rect id="Rectangle_1" data-name="Rectangle 1" width="3.669" height="11.853" transform="translate(0.353 5.926)" fill="#37475b"/>
    <path id="Path_7" data-name="Path 7" d="M170.752,56.4a2.187,2.187,0,1,0-2.169-2.187,2.179,2.179,0,0,0,2.169,2.187" transform="translate(-168.583 -52.027)" fill="#37475b"/>
    <path id="Path_8" data-name="Path 8" d="M180.62,65.463c0-1.666.767-2.659,2.235-2.659,1.349,0,2,.953,2,2.659v6.222H188.5v-7.5c0-3.175-1.8-4.71-4.313-4.71a4.133,4.133,0,0,0-3.572,1.959v-1.6H177.1V71.685h3.52Z" transform="translate(-170.733 -53.906)" fill="#37475b"/>
  </g>
</svg>
