<?xml version="1.0" encoding="UTF-8"?>
<svg id="Layer_2" data-name="Layer 2" xmlns="http://www.w3.org/2000/svg" viewBox="0 0 506 106.59">
  <defs>
    <style>
      .cls-1 {
        fill: #4d0b06;
      }

      .cls-2 {
        fill: #ff4b00;
      }
    </style>
  </defs>
  <g id="Layer_1-2" data-name="Layer 1">
    <g>
      <g>
        <path class="cls-1" d="m137.83,67.59c.15,6.14,4.61,10.34,11,10.34,7.52,0,11.62-4.5,11.62-12.95V12.68h11.46v52.35c0,14.64-8.6,23.13-22.98,23.13-13.31,0-22.36-8.29-22.36-20.57h11.26Z"/>
        <path class="cls-1" d="m227.9,70.71c-1.54,9.83-10.85,16.84-23.18,16.84-15.81,0-25.38-10.7-25.38-27.69s9.72-28.15,24.92-28.15,24.26,10.54,24.26,26.87v3.79h-38.03v.67c0,9.37,5.63,15.56,14.48,15.56,6.29,0,10.95-3.17,12.44-7.88h10.49Zm-37.36-16.07h26.92c-.26-8.24-5.48-14.02-13.2-14.02s-13.15,5.89-13.72,14.02Z"/>
        <path class="cls-1" d="m290.63,86.53h-11.52l-11.31-40.33h-.26l-11.21,40.33h-11.41l-14.79-53.84h11.05l9.83,42.38h.2l11.21-42.38h10.65l11.26,42.38h.26l9.83-42.38h10.95l-14.74,53.84Z"/>
        <path class="cls-1" d="m306.44,71.22c0-9.42,7.22-15.2,20.01-15.92l14.74-.87v-4.15c0-5.99-4.04-9.57-10.8-9.57-6.4,0-10.39,3.07-11.36,7.88h-10.44c.61-9.72,8.9-16.89,22.21-16.89s21.39,6.91,21.39,17.71v37.1h-10.59v-8.85h-.26c-3.12,5.99-9.93,9.78-16.99,9.78-10.54,0-17.91-6.55-17.91-16.22Zm34.75-4.86v-4.25l-13.26.82c-6.6.46-10.34,3.38-10.34,7.98s3.89,7.78,9.83,7.78c7.73,0,13.77-5.32,13.77-12.33Z"/>
        <path class="cls-1" d="m380.08,31.71c12.54,0,20.68,6.96,21.03,16.89h-10.39c-.61-5.22-4.45-8.5-10.65-8.5s-9.98,2.92-9.98,7.22c0,3.38,2.46,5.68,8.29,7.01l8.75,2c11,2.56,15.2,6.86,15.2,14.64,0,9.83-9.16,16.58-21.85,16.58-13.46,0-21.55-6.6-22.57-16.84h10.95c1.02,5.63,4.86,8.39,11.62,8.39s10.75-2.76,10.75-7.17c0-3.48-2-5.53-7.88-6.86l-8.75-2.05c-10.24-2.35-15.3-7.27-15.3-15.1,0-9.62,8.39-16.22,20.78-16.22Z"/>
        <path class="cls-1" d="m408.63,32.69h11.05v53.84h-11.05v-53.84Z"/>
        <path class="cls-1" d="m442.7,19.94v12.74h10.24v8.75h-10.24v29.68c0,4.66,2.05,6.76,6.55,6.76,1.13,0,2.92-.1,3.63-.26v8.75c-1.23.31-3.68.51-6.14.51-10.9,0-15.15-4.15-15.15-14.54v-30.91h-7.83v-8.75h7.83v-12.74h11.11Z"/>
        <path class="cls-1" d="m460.25,106.33v-8.96c.82.21,2.66.21,3.58.21,5.12,0,7.88-2.15,9.57-7.68,0-.1.97-3.28.97-3.33l-19.45-53.89h11.98l13.61,43.81h.2l13.61-43.81h11.67l-20.16,56.65c-4.61,13.05-9.93,17.25-21.09,17.25-.92,0-3.68-.1-4.5-.26Z"/>
      </g>
      <g>
        <path class="cls-2" d="m50.88,101.7C22.83,101.7,0,78.88,0,50.82S22.3,1.12,50.76,0c1.67-.07,3.06,1.23,3.12,2.89.07,1.66-1.23,3.06-2.89,3.12C25.77,7.01,6.01,26.69,6.01,50.82s20.13,44.87,44.87,44.87,44.87-20.13,44.87-44.87c0-12.21-4.82-23.62-13.56-32.14-1.19-1.16-1.21-3.06-.06-4.25,1.16-1.19,3.06-1.21,4.25-.06,9.92,9.66,15.38,22.61,15.38,36.45,0,28.06-22.83,50.88-50.88,50.88Z"/>
        <path class="cls-2" d="m50.88,86.52c-19.69,0-35.71-16.02-35.71-35.71S31.19,15.11,50.88,15.11c1.66,0,3.01,1.35,3.01,3.01s-1.35,3.01-3.01,3.01c-16.37,0-29.69,13.32-29.69,29.69s13.32,29.69,29.69,29.69,29.69-13.32,29.69-29.69V6.01h-29.69c-1.66,0-3.01-1.35-3.01-3.01S49.22,0,50.88,0h32.7c1.66,0,3.01,1.35,3.01,3.01v47.81c0,19.69-16.02,35.71-35.71,35.71Z"/>
        <path class="cls-2" d="m50.88,70.82c-11.03,0-20-8.97-20-20,0-1.66,1.35-3.01,3.01-3.01s3.01,1.35,3.01,3.01c0,7.71,6.27,13.99,13.99,13.99s13.99-6.28,13.99-13.99V3.01C64.87,1.35,66.22,0,67.88,0s3.01,1.35,3.01,3.01v47.81c0,11.03-8.97,20-20,20Z"/>
        <path class="cls-2" d="m50.88,53.01c-1.66,0-3.01-1.35-3.01-3.01V3.01C47.88,1.35,49.22,0,50.88,0s3.01,1.35,3.01,3.01v47c0,1.66-1.35,3.01-3.01,3.01Z"/>
      </g>
      <path class="cls-2" d="m407.46,17.64c0-3.7,3-6.64,6.69-6.64s6.64,2.94,6.64,6.64-2.95,6.64-6.64,6.64-6.69-3-6.69-6.64Z"/>
    </g>
  </g>
</svg>