<svg width="24" height="24" viewBox="0 0 24 24" fill="none" xmlns="http://www.w3.org/2000/svg">
<path d="M9.99829 2C8.34139 2 6.99829 3.343 6.99829 5V6H5.99829C4.34139 6 2.99829 7.343 2.99829 9V19C2.99829 20.657 4.34139 22 5.99829 22H17.9983C19.6766 22.004 21.0195 20.644 20.9983 19V5C20.9983 3.343 19.6551 2 17.9983 2H9.99829ZM9.99829 4H17.9983C18.5505 4 18.9983 4.448 18.9983 5V19C18.9983 19.552 18.5505 20 17.9983 20C17.446 20 16.9982 19.552 16.9983 19V9C16.9983 7.343 15.6551 6 13.9983 6H8.99829V5C8.99829 4.448 9.44599 4 9.99829 4ZM5.99829 8H13.9983C14.5505 8 14.9983 8.448 14.9983 9V19C14.9983 19.389 15.0322 19.657 15.167 19.998L5.99829 20C5.44599 20 4.99819 19.552 4.99829 19V9C4.99829 8.448 5.44599 8 5.99829 8Z" fill="#C3C7CD"/>
<path d="M7 9C6.4477 9 6 9.448 6 10V12C5.9999 12.552 6.4477 13 7 13H8C8.5522 13 9 12.552 9 12V10C9 9.448 8.5522 9 8 9H7ZM11 11C10.4477 11 9.9999 11.448 10 12C10 12.552 10.4477 13 11 13H13C13.5522 13 14 12.552 14 12C14 11.448 13.5522 11 13 11H11ZM7 14C6.4477 14 5.9999 14.448 6 15C6 15.552 6.4477 16 7 16H13C13.5522 16 14 15.552 14 15C14 14.448 13.5522 14 13 14H7ZM7 17C6.4477 17 5.9999 17.448 6 18C6 18.552 6.4477 19 7 19H13C13.5522 19 14 18.552 14 18C14 17.448 13.5522 17 13 17H7Z" fill="#C3C7CD"/>
</svg>
