<svg width="14" height="14" viewBox="0 0 14 14" fill="none" xmlns="http://www.w3.org/2000/svg">
<path d="M3.30144 0.250209C1.7674 0.233559 0.568872 1.21171 0.530475 2.52361C0.500306 3.56956 0.496644 4.95698 0.502129 6.67171C0.504872 7.66021 0.529561 11.3457 0.530475 11.5002C0.544188 12.7827 1.76374 13.7502 3.30144 13.7502C3.75123 13.7502 4.22752 13.673 4.73033 13.4217C5.30079 13.1375 6.59165 12.3672 8.47308 11.1957C8.54713 11.1492 12.129 8.87146 12.2725 8.78146C13.0843 8.27296 13.3714 7.56421 13.3294 6.95371C13.3138 6.72346 13.2818 6.51946 13.1867 6.27346C13.0322 5.87521 12.7781 5.52196 12.3585 5.26583C11.8922 4.98173 8.6084 2.92996 8.55812 2.89861C6.59898 1.67573 5.34284 0.924759 4.70198 0.578334C4.23391 0.325359 3.84446 0.249609 3.33068 0.250209C3.30142 0.250209 3.31789 0.250284 3.30144 0.250209ZM3.27309 1.75021C3.3124 1.75043 3.29776 1.75028 3.33068 1.75021C3.519 1.74998 3.59489 1.76281 3.70185 1.82056C4.29334 2.13991 5.5266 2.89703 7.4446 4.09396C7.49397 4.12516 10.7952 6.19321 11.2724 6.48421C11.4278 6.57946 11.5119 6.78871 11.5293 7.04671C11.5403 7.20121 11.4324 7.43821 11.1581 7.60921C11.0109 7.70145 7.43181 9.95446 7.35867 10.0002C5.54489 11.1297 4.25038 11.888 3.75854 12.1332C3.57661 12.224 3.44314 12.2502 3.30144 12.2502C2.75657 12.2502 2.36346 11.9502 2.35889 11.5002C2.35797 11.345 2.33328 7.65646 2.33054 6.67171C2.32506 4.96898 2.32963 3.57706 2.35889 2.54708C2.37351 2.04518 2.75657 1.74458 3.27309 1.75021Z" fill="white"/>
</svg>
