<svg width="24" height="24" viewBox="0 0 24 24" fill="none" xmlns="http://www.w3.org/2000/svg">
<path d="M9.05611 3.00028C7.38262 2.97808 6.07513 4.28228 6.03325 6.03148C6.00033 7.42607 5.99634 9.27597 6.00232 11.5623C6.00531 12.8803 6.03225 17.7943 6.03325 18.0003C6.04821 19.7103 7.37863 21.0003 9.05611 21.0003C9.54679 21.0003 10.0664 20.8973 10.6149 20.5623C11.2372 20.1833 12.6454 19.1563 14.6979 17.5943C14.7787 17.5323 18.6862 14.4953 18.8428 14.3753C19.7284 13.6973 20.0415 12.7523 19.9957 11.9383C19.9787 11.6313 19.9438 11.3593 19.8401 11.0313C19.6715 10.5003 19.3943 10.0293 18.9365 9.68778C18.4279 9.30898 14.8455 6.57327 14.7907 6.53147C12.6534 4.90098 11.2831 3.89968 10.584 3.43778C10.0734 3.10048 9.6485 2.99948 9.08801 3.00028C9.0561 3.00028 9.07407 3.00038 9.05611 3.00028ZM9.02519 5.00028C9.06808 5.00058 9.05211 5.00038 9.08801 5.00028C9.29346 4.99998 9.37624 5.01708 9.49293 5.09408C10.1382 5.51988 11.4836 6.52938 13.5759 8.12528C13.6298 8.16688 17.2311 10.9243 17.7517 11.3123C17.9212 11.4393 18.013 11.7183 18.032 12.0623C18.0439 12.2683 17.9262 12.5843 17.627 12.8123C17.4665 12.9353 13.562 15.9393 13.4822 16.0003C11.5035 17.5063 10.0913 18.5173 9.55477 18.8443C9.35631 18.9653 9.2107 19.0003 9.05611 19.0003C8.46171 19.0003 8.03286 18.6003 8.02788 18.0003C8.02688 17.7933 7.99995 12.8753 7.99695 11.5623C7.99097 9.29197 7.99596 7.43608 8.02788 6.06278C8.04383 5.39358 8.46171 4.99278 9.02519 5.00028Z" fill="white"/>
</svg>
