<svg xmlns="http://www.w3.org/2000/svg" width="21.5" height="21.5" viewBox="0 0 21.5 21.5">
  <path id="Vector" d="M17.78,16.72A.75.75,0,0,0,16.72,17.78ZM20.22,21.28A.75.75,0,0,0,21.28,20.22Zm.28-11.03A10.25,10.25,0,0,0,10.25,0V1.5A8.75,8.75,0,0,1,19,10.25ZM10.25,0A10.25,10.25,0,0,0,0,10.25H1.5A8.75,8.75,0,0,1,10.25,1.5ZM0,10.25A10.25,10.25,0,0,0,10.25,20.5V19A8.75,8.75,0,0,1,1.5,10.25ZM10.25,20.5A10.25,10.25,0,0,0,20.5,10.25H19A8.75,8.75,0,0,1,10.25,19Zm6.47-2.72,3.5,3.5L21.28,20.22l-3.5-3.5Z" fill="#37475b" opacity="0.25"/>
</svg>
