<svg xmlns="http://www.w3.org/2000/svg" width="20.8" height="18.853" viewBox="0 0 20.8 18.853">
  <path id="Vector_42_Stroke_" data-name="Vector 42 (Stroke)" d="M19.535,4.689l-.567-.452h0ZM9.568,17.178l.567.452h0ZM4.391,8l-.527.5h0ZM1.4,4.847l.527-.5Zm1.852-3.4h14.29V0H3.255ZM18.968,4.236,9,16.725l1.134.9L20.1,5.141ZM5.785,15.67v-6H4.334v6ZM4.918,7.5,1.93,4.348l-1.053,1L3.865,8.5Zm.867,2.164A3.147,3.147,0,0,0,4.918,7.5l-1.053,1a1.7,1.7,0,0,1,.47,1.167ZM9,16.725A1.805,1.805,0,0,1,5.785,15.67H4.334a3.255,3.255,0,0,0,5.8,1.96ZM3.255,0A3.175,3.175,0,0,0,.877,5.345l1.053-1a1.724,1.724,0,0,1,1.325-2.9Zm14.29,1.45a1.727,1.727,0,0,1,1.422,2.786l1.134.9A3.177,3.177,0,0,0,17.546,0Z" fill="#37475b" opacity="0.25"/>
</svg>
