<svg xmlns="http://www.w3.org/2000/svg" width="27" height="27" viewBox="0 0 27 27">
  <path id="Vector" d="M25.116,5.337a3.453,3.453,0,0,1-3.453,3.453v1.884A5.337,5.337,0,0,0,27,5.337Zm-6.907,0a3.453,3.453,0,0,1,3.453-3.453V0a5.337,5.337,0,0,0-5.337,5.337Zm3.453-3.453a3.453,3.453,0,0,1,3.453,3.453H27A5.337,5.337,0,0,0,21.663,0Zm3.453,19.779a3.453,3.453,0,0,1-3.453,3.453V27A5.337,5.337,0,0,0,27,21.663Zm-3.453,3.453a3.453,3.453,0,0,1-3.453-3.453H16.326A5.337,5.337,0,0,0,21.663,27Zm0-6.907a3.453,3.453,0,0,1,3.453,3.453H27a5.337,5.337,0,0,0-5.337-5.337ZM5.337,16.953A3.453,3.453,0,0,1,1.884,13.5H0a5.337,5.337,0,0,0,5.337,5.337ZM1.884,13.5a3.453,3.453,0,0,1,3.453-3.453V8.163A5.337,5.337,0,0,0,0,13.5Zm3.453-3.453a3.453,3.453,0,0,1,3.09,1.909l1.684-.844A5.337,5.337,0,0,0,5.337,8.163Zm3.09,1.909A3.435,3.435,0,0,1,8.791,13.5h1.884a5.319,5.319,0,0,0-.563-2.388ZM8.791,13.5a3.436,3.436,0,0,1-.363,1.544l1.684.844a5.319,5.319,0,0,0,.563-2.388Zm-.363,1.544a3.454,3.454,0,0,1-3.09,1.909v1.884a5.337,5.337,0,0,0,4.774-2.949Zm1.263-2.668,8.461-4.231-.842-1.685L8.848,10.691ZM21.663,8.791a3.453,3.453,0,0,1-3.09-1.909l-1.684.844a5.337,5.337,0,0,0,4.774,2.949Zm-3.09-1.909a3.434,3.434,0,0,1-.363-1.544H16.326a5.318,5.318,0,0,0,.563,2.388Zm-.421,11.973L9.691,14.624l-.842,1.685,8.461,4.231Zm.058,2.809a3.435,3.435,0,0,1,.363-1.544l-1.684-.844a5.318,5.318,0,0,0-.563,2.388Zm.363-1.544a3.454,3.454,0,0,1,3.09-1.909V16.326a5.337,5.337,0,0,0-4.774,2.949Z" fill="#fcfcfc" opacity="0.3"/>
</svg>
