<svg xmlns="http://www.w3.org/2000/svg" width="21" height="21" viewBox="0 0 21 21">
  <path id="Vector" d="M19.535,4.151a2.686,2.686,0,0,1-2.686,2.686V8.3A4.151,4.151,0,0,0,21,4.151Zm-5.372,0a2.686,2.686,0,0,1,2.686-2.686V0A4.151,4.151,0,0,0,12.7,4.151Zm2.686-2.686a2.686,2.686,0,0,1,2.686,2.686H21A4.151,4.151,0,0,0,16.849,0Zm2.686,15.384a2.686,2.686,0,0,1-2.686,2.686V21A4.151,4.151,0,0,0,21,16.849Zm-2.686,2.686a2.686,2.686,0,0,1-2.686-2.686H12.7A4.151,4.151,0,0,0,16.849,21Zm0-5.372a2.686,2.686,0,0,1,2.686,2.686H21A4.151,4.151,0,0,0,16.849,12.7Zm-12.7-.977A2.686,2.686,0,0,1,1.465,10.5H0a4.151,4.151,0,0,0,4.151,4.151ZM1.465,10.5A2.686,2.686,0,0,1,4.151,7.814V6.349A4.151,4.151,0,0,0,0,10.5ZM4.151,7.814A2.686,2.686,0,0,1,6.555,9.3l1.31-.656A4.151,4.151,0,0,0,4.151,6.349ZM6.555,9.3a2.672,2.672,0,0,1,.283,1.2H8.3a4.137,4.137,0,0,0-.438-1.857Zm.283,1.2a2.672,2.672,0,0,1-.283,1.2l1.31.656A4.137,4.137,0,0,0,8.3,10.5Zm-.283,1.2a2.686,2.686,0,0,1-2.4,1.485v1.465a4.151,4.151,0,0,0,3.713-2.294Zm.983-2.075,6.581-3.29-.655-1.31L6.882,8.316Zm9.312-2.789a2.686,2.686,0,0,1-2.4-1.485l-1.31.656A4.151,4.151,0,0,0,16.849,8.3Zm-2.4-1.485a2.671,2.671,0,0,1-.283-1.2H12.7a4.136,4.136,0,0,0,.438,1.857Zm-.327,9.312-6.581-3.29-.655,1.31,6.581,3.29Zm.045,2.184a2.671,2.671,0,0,1,.283-1.2l-1.31-.656a4.136,4.136,0,0,0-.438,1.857Zm.283-1.2a2.686,2.686,0,0,1,2.4-1.485V12.7a4.151,4.151,0,0,0-3.713,2.294Z" fill="#fcfcfc"/>
</svg>
