<svg width="24" height="24" viewBox="0 0 24 24" fill="none" xmlns="http://www.w3.org/2000/svg">
<path fill-rule="evenodd" clip-rule="evenodd" d="M5 10C5 9.44772 4.55228 9 4 9C3.44772 9 3 9.44772 3 10V14C3 14.5523 3.44772 15 4 15C4.55228 15 5 14.5523 5 14V10ZM21 10C21 9.44772 20.5523 9 20 9C19.4477 9 19 9.44772 19 10V14C19 14.5523 19.4477 15 20 15C20.5523 15 21 14.5523 21 14V10Z" fill="white" fill-opacity="0.4"/>
<path fill-rule="evenodd" clip-rule="evenodd" d="M13 4C13 3.44772 12.5523 3 12 3C11.4477 3 11 3.44772 11 4V20C11 20.5523 11.4477 21 12 21C12.5523 21 13 20.5523 13 20V4ZM8 6C8.55228 6 9 6.44772 9 7V17C9 17.5523 8.55228 18 8 18C7.44772 18 7 17.5523 7 17V7C7 6.44772 7.44772 6 8 6ZM16 6C16.5523 6 17 6.44772 17 7V17C17 17.5523 16.5523 18 16 18C15.4477 18 15 17.5523 15 17V7C15 6.44772 15.4477 6 16 6Z" fill="white"/>
</svg>
