<svg xmlns="http://www.w3.org/2000/svg" width="21" height="21" viewBox="0 0 21 21">
  <path id="Vector" d="M9.523,2.686h0ZM11.477.733v0Zm0,7.814v.733h0ZM9.523,6.593h0Zm7.814,0h0ZM15.384,8.547V7.814h0Zm1.953-5.86h0ZM15.384.733v0ZM3.663,14.407h0Zm1.953-1.953v.733h0Zm0,7.814V21h0ZM3.663,18.314h0Zm7.814,0h0ZM9.523,20.267v-.733h0Zm1.953-5.86h0ZM9.523,12.453v-.733h0ZM6.593,5.372a.733.733,0,0,0,0-1.465ZM.733,3.907a.733.733,0,1,0,0,1.465ZM20.267,5.372a.733.733,0,0,0,0-1.465Zm-2.93-1.465a.733.733,0,1,0,0,1.465Zm2.93,13.186a.733.733,0,0,0,0-1.465Zm-5.86-1.465a.733.733,0,1,0,0,1.465ZM3.663,17.093a.733.733,0,1,0,0-1.465ZM.733,15.628a.733.733,0,1,0,0,1.465ZM16.6,2.686V6.593H18.07V2.686ZM15.384,7.814H11.477V9.279h3.907ZM10.256,6.593V2.686H8.791V6.593Zm1.221-5.128h3.907V0H11.477ZM10.256,2.686a1.221,1.221,0,0,1,1.221-1.221V0A2.686,2.686,0,0,0,8.791,2.686Zm1.221,5.128a1.221,1.221,0,0,1-1.221-1.221H8.791a2.686,2.686,0,0,0,2.686,2.686ZM16.6,6.593a1.221,1.221,0,0,1-1.221,1.221V9.279A2.686,2.686,0,0,0,18.07,6.593ZM18.07,2.686A2.686,2.686,0,0,0,15.384,0V1.465A1.221,1.221,0,0,1,16.6,2.686ZM10.744,14.407v3.907h1.465V14.407ZM9.523,19.535H5.616V21H9.523ZM4.4,18.314V14.407H2.93v3.907Zm1.221-5.128H9.523V11.721H5.616ZM4.4,14.407a1.221,1.221,0,0,1,1.221-1.221V11.721A2.686,2.686,0,0,0,2.93,14.407Zm1.221,5.128A1.221,1.221,0,0,1,4.4,18.314H2.93A2.686,2.686,0,0,0,5.616,21Zm5.128-1.221a1.221,1.221,0,0,1-1.221,1.221V21a2.686,2.686,0,0,0,2.686-2.686Zm1.465-3.907a2.686,2.686,0,0,0-2.686-2.686v1.465a1.221,1.221,0,0,1,1.221,1.221ZM6.593,3.907H.733V5.372h5.86Zm13.674,0h-2.93V5.372h2.93Zm0,11.721h-5.86v1.465h5.86Zm-16.6,0H.733v1.465h2.93Z" fill="#fcfcfc"/>
</svg>
