<svg xmlns="http://www.w3.org/2000/svg" width="10.928" height="17.777" viewBox="0 0 10.928 17.777">
  <g id="Group_2" data-name="Group 2" transform="translate(0 0)" opacity="0.4">
    <path id="Path_6" data-name="Path 6" d="M342.234,14.41a5.238,5.238,0,0,0,.255,1.859,3.181,3.181,0,0,0,.917,1.211,4.616,4.616,0,0,0,1.6.876,6.883,6.883,0,0,0,2.154.308,8.826,8.826,0,0,0,2-.215,10.615,10.615,0,0,0,2.062-.752V14.9a4.85,4.85,0,0,1-2.686.878,2.564,2.564,0,0,1-1.349-.354,1.352,1.352,0,0,1-.609-.7,7.268,7.268,0,0,1-.163-1.985V8.18h4.221V5.389h-4.221V.887h-2.518a6.952,6.952,0,0,1-.621,2.263,4.866,4.866,0,0,1-1.194,1.524,5.209,5.209,0,0,1-1.787.974V8.18h1.946Z" transform="translate(-340.288 -0.887)" fill="#37475b"/>
  </g>
</svg>
