<svg id="Group_68" data-name="Group 68" xmlns="http://www.w3.org/2000/svg" xmlns:xlink="http://www.w3.org/1999/xlink" width="56.56" height="56.56" viewBox="0 0 56.56 56.56">
  <defs>
    <linearGradient id="linear-gradient" x1="0.521" y1="-0.052" x2="0.484" y2="1.002" gradientUnits="objectBoundingBox">
      <stop offset="0" stop-color="#2cb5e5"/>
      <stop offset="0.601" stop-color="#6773f4"/>
      <stop offset="1" stop-color="#9146ff"/>
    </linearGradient>
    <clipPath id="clip-path">
      <rect id="Rectangle_144" data-name="Rectangle 144" width="56.56" height="56.56" rx="12" fill="url(#linear-gradient)"/>
    </clipPath>
    <clipPath id="clip-path-2">
      <rect id="Rectangle_145" data-name="Rectangle 145" width="56.56" height="56.56" fill="none"/>
    </clipPath>
  </defs>
  <g id="Group_85" data-name="Group 85" transform="translate(0 0)">
    <g id="Group_84" data-name="Group 84" clip-path="url(#clip-path)">
      <rect id="Rectangle_143" data-name="Rectangle 143" width="79.988" height="79.988" transform="translate(-28.28 28.28) rotate(-45)" fill="url(#linear-gradient)"/>
    </g>
  </g>
  <g id="Group_87" data-name="Group 87" transform="translate(0 0)">
    <g id="Group_86" data-name="Group 86" clip-path="url(#clip-path-2)">
      <path id="Path_26" data-name="Path 26" d="M10.478,24.93s14.147-5.806,19.054-7.851c1.881-.818,8.259-3.434,8.259-3.434s2.944-1.145,2.7,1.635c-.082,1.145-.736,5.153-1.391,9.486C38.118,30.9,37.055,37.6,37.055,37.6s-.163,1.881-1.553,2.208-3.68-1.145-4.088-1.471c-.328-.246-6.134-3.925-8.26-5.724A1.55,1.55,0,0,1,23.235,30c2.944-2.7,6.46-6.052,8.587-8.179.981-.981,1.963-3.27-2.127-.49C23.89,25.338,18.166,29.1,18.166,29.1a4.8,4.8,0,0,1-3.762.082c-2.454-.736-5.316-1.717-5.316-1.717s-1.962-1.226,1.391-2.535" transform="translate(1.59 2.503)" fill="#fff"/>
    </g>
  </g>
</svg>
