<svg xmlns="http://www.w3.org/2000/svg" width="21.875" height="17.777" viewBox="0 0 21.875 17.777">
  <path id="Path_1" data-name="Path 1" d="M109.452,19.827A12.765,12.765,0,0,0,129.089,8.493a9.127,9.127,0,0,0,2.239-2.324,8.977,8.977,0,0,1-2.577.706,4.493,4.493,0,0,0,1.973-2.483,9.009,9.009,0,0,1-2.85,1.09,4.491,4.491,0,0,0-7.648,4.093,12.736,12.736,0,0,1-9.25-4.689,4.493,4.493,0,0,0,1.389,5.992,4.477,4.477,0,0,1-2.034-.562,4.493,4.493,0,0,0,3.6,4.458,4.5,4.5,0,0,1-2.026.076,4.491,4.491,0,0,0,4.192,3.117,9.022,9.022,0,0,1-6.644,1.858" transform="translate(-109.452 -4.066)" fill="#37475b" opacity="0.4"/>
</svg>
