<svg id="Group_67" data-name="Group 67" xmlns="http://www.w3.org/2000/svg" xmlns:xlink="http://www.w3.org/1999/xlink" width="56.56" height="56.56" viewBox="0 0 56.56 56.56">
  <defs>
    <linearGradient id="linear-gradient" x1="0.566" y1="-0.008" x2="0.161" y2="0.854" gradientUnits="objectBoundingBox">
      <stop offset="0" stop-color="#00fb73"/>
      <stop offset="1" stop-color="#00b25b"/>
    </linearGradient>
    <clipPath id="clip-path">
      <rect id="Rectangle_141" data-name="Rectangle 141" width="56.56" height="56.56" rx="12" fill="url(#linear-gradient)"/>
    </clipPath>
    <clipPath id="clip-path-2">
      <rect id="Rectangle_142" data-name="Rectangle 142" width="56.56" height="56.56" fill="none"/>
    </clipPath>
  </defs>
  <g id="Group_80" data-name="Group 80" transform="translate(0 0)">
    <g id="Group_79" data-name="Group 79" clip-path="url(#clip-path)">
      <rect id="Rectangle_140" data-name="Rectangle 140" width="79.988" height="79.988" transform="translate(-28.28 28.28) rotate(-45)" fill="url(#linear-gradient)"/>
    </g>
  </g>
  <g id="Group_82" data-name="Group 82" transform="translate(0 0)">
    <g id="Group_81" data-name="Group 81" clip-path="url(#clip-path-2)">
      <path id="Path_24" data-name="Path 24" d="M11.56,40.649l2.093-7.809a14.451,14.451,0,1,1,5.757,5.707ZM19.8,35.62l.495.294a11.731,11.731,0,1,0-4.014-3.978l.3.5L15.415,36.8Z" transform="translate(2.158 2.138)" fill="#fff"/>
      <path id="Path_25" data-name="Path 25" d="M30.413,26.648a2.427,2.427,0,0,0-2.066-.465c-.536.22-.879,1.059-1.226,1.488a.515.515,0,0,1-.666.144,9.351,9.351,0,0,1-4.666-4,.57.57,0,0,1,.071-.782,3.137,3.137,0,0,0,.847-1.377,3.011,3.011,0,0,0-.379-1.629,3.858,3.858,0,0,0-1.2-1.813,1.647,1.647,0,0,0-1.789.266,3.635,3.635,0,0,0-1.26,2.879,4.2,4.2,0,0,0,.113.914,7.578,7.578,0,0,0,.877,2.02,16.162,16.162,0,0,0,.915,1.392,14.17,14.17,0,0,0,3.968,3.685,12.015,12.015,0,0,0,2.475,1.177A5.5,5.5,0,0,0,29.3,31a3.488,3.488,0,0,0,2.613-1.943,1.683,1.683,0,0,0,.12-.992c-.148-.684-1.072-1.089-1.625-1.419" transform="translate(3.374 3.37)" fill="#fff" fill-rule="evenodd"/>
    </g>
  </g>
</svg>
