<svg id="Component_12_1" data-name="Component 12 – 1" xmlns="http://www.w3.org/2000/svg" width="43" height="43" viewBox="0 0 43 43">
  <circle id="Ellipse_5" data-name="Ellipse 5" cx="21.5" cy="21.5" r="21.5" fill="#fff" opacity="0.1"/>
  <g id="Huge-icon_interface_outline_remove" data-name="Huge-icon/interface/outline/remove" transform="translate(16.75 16.746)">
    <path id="Vector" d="M9.295,1.219A.714.714,0,0,0,8.285.209ZM.209,8.285a.714.714,0,0,0,1.01,1.01ZM8.285,9.295a.714.714,0,0,0,1.01-1.01ZM1.219.209a.714.714,0,0,0-1.01,1.01Zm7.067,0L.209,8.285l1.01,1.01L9.295,1.219Zm1.01,8.076L1.219.209.209,1.219,8.285,9.295Z" transform="translate(0 0)" fill="#fcfcfc"/>
  </g>
</svg>
